<svg xmlns="http://www.w3.org/2000/svg" width="138" height="36" viewBox="0 0 138 36">
    <g fill="#1B2979" fill-rule="evenodd">
        <path d="M43.856 25.006h2.626c2.005 0 3.564-.587 4.676-1.76 1.113-1.174 1.669-2.763 1.669-4.767 0-2.004-.556-3.593-1.669-4.766-1.112-1.174-2.67-1.76-4.676-1.76h-2.626v13.053zM46.482 9c3.063 0 5.538.867 7.425 2.6 1.887 1.733 2.83 4.026 2.83 6.88 0 2.852-.943 5.136-2.83 6.851-1.887 1.716-4.362 2.573-7.425 2.573H40V9h6.482zm20.147 19.12c-2.206 0-4.002-.708-5.388-2.125-1.386-1.418-2.079-3.29-2.079-5.62s.698-4.193 2.093-5.593c1.394-1.399 3.2-2.099 5.415-2.099s4.034.682 5.456 2.045c1.422 1.363 2.133 3.182 2.133 5.457 0 .524-.036 1.012-.11 1.463H63.102c.09.975.455 1.76 1.094 2.356.638.596 1.45.894 2.434.894 1.33 0 2.315-.542 2.953-1.625h4.157c-.437 1.426-1.285 2.59-2.543 3.494-1.258.902-2.78 1.354-4.567 1.354zm2.53-11.32c-.684-.596-1.51-.894-2.476-.894s-1.773.298-2.42.894c-.647.596-1.035 1.39-1.162 2.383h7.165c-.055-.993-.424-1.787-1.108-2.383zm6.732-3.9h4.102l3.911 11.727L87.788 12.9h4.102l-5.58 15.004h-4.84L75.89 12.9zm25.097 15.22c-2.206 0-4.002-.708-5.388-2.125-1.385-1.418-2.078-3.29-2.078-5.62s.697-4.193 2.092-5.593c1.395-1.399 3.2-2.099 5.415-2.099s4.034.682 5.456 2.045c1.422 1.363 2.133 3.182 2.133 5.457 0 .524-.036 1.012-.11 1.463H97.46c.091.975.456 1.76 1.094 2.356.638.596 1.45.894 2.434.894 1.33 0 2.315-.542 2.954-1.625h4.157c-.438 1.426-1.286 2.59-2.544 3.494-1.258.902-2.78 1.354-4.567 1.354zm2.53-11.32c-.684-.596-1.51-.894-2.475-.894-.967 0-1.774.298-2.42.894-.648.596-1.035 1.39-1.163 2.383h7.165c-.054-.993-.424-1.787-1.107-2.383zm12.448-3.9v2.654c1.021-1.914 2.498-2.87 4.43-2.87v3.9h-.957c-1.148 0-2.014.284-2.598.852-.583.57-.875 1.549-.875 2.939v7.53h-3.856V12.9h3.856zm11.696 14.733L121.727 12.9h4.322l3.856 10.67 4.075-10.67H138L128.537 35h-4.02l3.145-7.367zM10.519 16.366L1.732 11.5a.327.327 0 0 0-.486.29v14.366c0 .823.434 1.583 1.14 1.998l12.142 7.134a.327.327 0 0 0 .493-.285l.101-30.095a2.025 2.025 0 0 1-1.096-1.804c0-1.117.899-2.023 2.007-2.023s2.006.906 2.006 2.023c0 .726-.379 1.363-.949 1.72l-.101 30.179c0 .346-.078.687-.225.998a3.996 3.996 0 0 0 1.195-.458l12.052-7.009A4 4 0 0 0 32 25.075V11.008a4 4 0 0 0-1.99-3.457L17.96.542a4 4 0 0 0-4.023 0L1.886 7.551A4 4 0 0 0 0 10.104a2.284 2.284 0 0 1 2.68-.342l8.72 4.83c.31-.205.682-.324 1.08-.324 1.086 0 1.966.886 1.966 1.98 0 1.092-.88 1.979-1.965 1.979-1.046 0-1.901-.823-1.962-1.86z"/>
    </g>
</svg>
