<svg xmlns="http://www.w3.org/2000/svg" width="24" height="24" viewBox="0 0 24 24">
    <g fill="#C4CEE1" fill-rule="nonzero">
        <path d="M5.043 23.567l.771-.93c.703-.85 4.215-5.212 4.215-7.651A4.99 4.99 0 0 0 5.044 10a4.991 4.991 0 0 0-4.986 4.986c0 2.439 3.513 6.802 4.216 7.652l.769.929zm0-11.567a2.99 2.99 0 0 1 2.985 2.986c0 1.068-1.562 3.529-2.985 5.403-1.425-1.874-2.986-4.333-2.986-5.403A2.99 2.99 0 0 1 5.043 12z"/>
        <path d="M5.735 14.293a1 1 0 1 1-1.414 1.414 1 1 0 0 1 1.414-1.414M19.015 0a4.991 4.991 0 0 0-4.986 4.986c0 2.439 3.513 6.802 4.216 7.652l.771.929.771-.93C20.488 11.788 24 7.426 24 4.986A4.99 4.99 0 0 0 19.015 0zm0 10.39c-1.425-1.874-2.986-4.333-2.986-5.403A2.989 2.989 0 0 1 19.015 2 2.989 2.989 0 0 1 22 4.986c0 1.069-1.562 3.53-2.985 5.404z"/>
        <path d="M19.707 4.293a1 1 0 1 1-1.414 1.414 1 1 0 0 1 1.414-1.414M18.029 22h-9v2h11v-8h-2z"/>
    </g>
</svg>
